<mxfile host="Electron" modified="2024-11-20T11:35:37.837Z" agent="Mozilla/5.0 (Windows NT 10.0; Win64; x64) AppleWebKit/537.36 (KHTML, like Gecko) draw.io/22.0.3 Chrome/114.0.5735.289 Electron/25.8.4 Safari/537.36" etag="VvX6AQP8S_erw2vcmCd_" version="22.0.3" type="device">
  <diagram name="Seite-1" id="1wJZYg-sN28dwmO0yLAL">
    <mxGraphModel dx="1098" dy="782" grid="1" gridSize="10" guides="1" tooltips="1" connect="1" arrows="1" fold="1" page="1" pageScale="1" pageWidth="827" pageHeight="1169" math="0" shadow="0">
      <root>
        <mxCell id="0" />
        <mxCell id="1" parent="0" />
        <mxCell id="fy48gWIyvFch9U87aRME-1" value="&lt;h3&gt;&lt;br&gt;&lt;/h3&gt;" style="rounded=0;whiteSpace=wrap;html=1;strokeWidth=2;" parent="1" vertex="1">
          <mxGeometry x="20" y="130" width="790" height="440" as="geometry" />
        </mxCell>
        <mxCell id="fy48gWIyvFch9U87aRME-2" value="" style="rounded=0;whiteSpace=wrap;html=1;strokeWidth=2;" parent="1" vertex="1">
          <mxGeometry x="20" y="130" width="130" height="440" as="geometry" />
        </mxCell>
        <mxCell id="fy48gWIyvFch9U87aRME-4" value="&lt;h2&gt;Menü mit mehreren Auswahlen&lt;/h2&gt;" style="text;html=1;strokeColor=none;fillColor=none;align=left;verticalAlign=middle;whiteSpace=wrap;rounded=0;" parent="1" vertex="1">
          <mxGeometry x="30" y="150" width="110" height="50" as="geometry" />
        </mxCell>
        <mxCell id="fy48gWIyvFch9U87aRME-5" value="&lt;h3&gt;Dashboard&lt;/h3&gt;" style="rounded=0;whiteSpace=wrap;html=1;strokeWidth=2;" parent="1" vertex="1">
          <mxGeometry x="25" y="220" width="120" height="40" as="geometry" />
        </mxCell>
        <mxCell id="fy48gWIyvFch9U87aRME-6" value="&lt;h3&gt;Kunden&lt;/h3&gt;" style="rounded=0;whiteSpace=wrap;html=1;strokeWidth=2;" parent="1" vertex="1">
          <mxGeometry x="25" y="280" width="120" height="40" as="geometry" />
        </mxCell>
        <mxCell id="fy48gWIyvFch9U87aRME-7" value="&lt;h3&gt;Tickets&lt;/h3&gt;" style="rounded=0;whiteSpace=wrap;html=1;strokeWidth=2;" parent="1" vertex="1">
          <mxGeometry x="25" y="340" width="120" height="40" as="geometry" />
        </mxCell>
        <mxCell id="fy48gWIyvFch9U87aRME-8" value="&lt;h3&gt;Benutzer&lt;/h3&gt;" style="rounded=0;whiteSpace=wrap;html=1;strokeWidth=2;fillColor=#f5f5f5;fontColor=#333333;strokeColor=#666666;" parent="1" vertex="1">
          <mxGeometry x="25" y="400" width="120" height="40" as="geometry" />
        </mxCell>
        <mxCell id="fy48gWIyvFch9U87aRME-10" value="&lt;h3&gt;Überschrift&lt;/h3&gt;" style="text;html=1;strokeColor=none;fillColor=none;align=center;verticalAlign=middle;whiteSpace=wrap;rounded=0;" parent="1" vertex="1">
          <mxGeometry x="180" y="170" width="60" height="30" as="geometry" />
        </mxCell>
        <mxCell id="fy48gWIyvFch9U87aRME-15" value="&lt;h2&gt;Benutzer&lt;/h2&gt;" style="text;html=1;strokeColor=none;fillColor=none;align=center;verticalAlign=middle;whiteSpace=wrap;rounded=0;" parent="1" vertex="1">
          <mxGeometry x="180" y="140" width="60" height="30" as="geometry" />
        </mxCell>
        <mxCell id="sLEsBc383k4uCxGaAYeG-2" value="&lt;h3&gt;Profilbild&lt;/h3&gt;" style="whiteSpace=wrap;html=1;aspect=fixed;strokeWidth=2;" parent="1" vertex="1">
          <mxGeometry x="170" y="220" width="90" height="90" as="geometry" />
        </mxCell>
        <mxCell id="sLEsBc383k4uCxGaAYeG-3" value="&lt;h3&gt;Vorname&lt;/h3&gt;" style="rounded=0;whiteSpace=wrap;html=1;strokeWidth=2;align=left;" parent="1" vertex="1">
          <mxGeometry x="170" y="330" width="310" height="30" as="geometry" />
        </mxCell>
        <mxCell id="sLEsBc383k4uCxGaAYeG-4" value="&lt;h3&gt;Nachname&lt;/h3&gt;" style="rounded=0;whiteSpace=wrap;html=1;strokeWidth=2;align=left;" parent="1" vertex="1">
          <mxGeometry x="170" y="370" width="310" height="30" as="geometry" />
        </mxCell>
        <mxCell id="sLEsBc383k4uCxGaAYeG-5" value="&lt;h3&gt;E-Mail&lt;/h3&gt;" style="rounded=0;whiteSpace=wrap;html=1;strokeWidth=2;align=left;" parent="1" vertex="1">
          <mxGeometry x="170" y="410" width="310" height="30" as="geometry" />
        </mxCell>
        <mxCell id="sLEsBc383k4uCxGaAYeG-6" value="&lt;h3&gt;Telefonnummer&lt;/h3&gt;" style="rounded=0;whiteSpace=wrap;html=1;strokeWidth=2;align=left;" parent="1" vertex="1">
          <mxGeometry x="170" y="450" width="310" height="30" as="geometry" />
        </mxCell>
        <mxCell id="sLEsBc383k4uCxGaAYeG-7" value="&lt;h3&gt;Ändern&lt;/h3&gt;" style="rounded=0;whiteSpace=wrap;html=1;strokeWidth=2;" parent="1" vertex="1">
          <mxGeometry x="170" y="520" width="100" height="30" as="geometry" />
        </mxCell>
        <mxCell id="sLEsBc383k4uCxGaAYeG-8" value="&lt;h3&gt;Löschen&lt;/h3&gt;" style="rounded=0;whiteSpace=wrap;html=1;strokeWidth=2;" parent="1" vertex="1">
          <mxGeometry x="690" y="520" width="100" height="30" as="geometry" />
        </mxCell>
        <mxCell id="qlgb5z0vHG3lTvAJRxA4-1" value="&lt;h3&gt;Logout&lt;/h3&gt;" style="rounded=0;whiteSpace=wrap;html=1;strokeWidth=2;" vertex="1" parent="1">
          <mxGeometry x="25" y="520" width="120" height="40" as="geometry" />
        </mxCell>
      </root>
    </mxGraphModel>
  </diagram>
</mxfile>
